# Blender 3.3.0
# www.blender.org
mtllib Player.mtl
v 1.272559 1.554075 -1.538956
v 1.272561 -1.438369 -1.538956
v -1.084318 1.554075 -1.532344
v -1.084316 -1.438369 -1.532343
v 1.280955 1.554075 1.453476
v 1.280956 -1.438369 1.453477
v -1.075922 1.554075 1.460089
v -1.075921 -1.438369 1.460089
v 0.727576 1.499974 1.455028
v 0.730184 1.499973 2.384901
v 0.727577 0.558639 1.455028
v 0.730186 0.558639 2.384902
v -0.464759 1.499974 1.458372
v -0.462149 1.499974 2.388247
v -0.464757 0.558639 1.458373
v -0.462148 0.558639 2.388247
vn -0.0028 -0.0000 -1.0000
vn -1.0000 -0.0000 0.0028
vn 0.0028 -0.0000 1.0000
vn 1.0000 -0.0000 -0.0028
vn -0.0000 1.0000 -0.0000
vn -0.0000 -1.0000 -0.0000
vt 0.375000 0.000000
vt 0.375000 1.000000
vt 0.125000 0.750000
vt 0.625000 0.000000
vt 0.625000 1.000000
vt 0.875000 0.750000
vt 0.125000 0.500000
vt 0.375000 0.250000
vt 0.625000 0.250000
vt 0.875000 0.500000
vt 0.375000 0.750000
vt 0.625000 0.750000
vt 0.375000 0.500000
vt 0.625000 0.500000
vt 0.375000 0.000000
vt 0.375000 1.000000
vt 0.125000 0.750000
vt 0.625000 0.000000
vt 0.625000 1.000000
vt 0.875000 0.750000
vt 0.125000 0.500000
vt 0.375000 0.250000
vt 0.625000 0.250000
vt 0.875000 0.500000
vt 0.375000 0.750000
vt 0.625000 0.750000
vt 0.375000 0.500000
vt 0.625000 0.500000
g Player1
usemtl default
f 2/4/1 3/8/1 1/1/1
f 4/9/2 7/13/2 3/8/2
f 8/14/3 5/11/3 7/13/3
f 6/12/4 1/2/4 5/11/4
f 7/13/5 1/3/5 3/7/5
f 4/10/6 6/12/6 8/14/6
f 2/4/1 4/9/1 3/8/1
f 4/9/2 8/14/2 7/13/2
f 8/14/3 6/12/3 5/11/3
f 6/12/4 2/5/4 1/2/4
f 7/13/5 5/11/5 1/3/5
f 4/10/6 2/6/6 6/12/6
f 10/18/4 11/22/4 9/15/4
f 12/23/6 15/27/6 11/22/6
f 16/28/2 13/25/2 15/27/2
f 14/26/5 9/16/5 13/25/5
f 15/27/1 9/17/1 11/21/1
f 16/28/3 10/20/3 14/26/3
f 10/18/4 12/23/4 11/22/4
f 12/23/6 16/28/6 15/27/6
f 16/28/2 14/26/2 13/25/2
f 14/26/5 10/19/5 9/16/5
f 15/27/1 13/25/1 9/17/1
f 16/28/3 12/24/3 10/20/3
